<?xml version="1.0" standalone="no"?>
<!DOCTYPE svg PUBLIC "-//W3C//DTD SVG 20010904//EN"
 "http://www.w3.org/TR/2001/REC-SVG-20010904/DTD/svg10.dtd">
<svg version="1.0" xmlns="http://www.w3.org/2000/svg"
 width="531.000000pt" height="531.000000pt" viewBox="0 0 531.000000 531.000000"
 preserveAspectRatio="xMidYMid meet">
<metadata>
Created by potrace 1.11, written by Peter Selinger 2001-2013
</metadata>
<g transform="translate(0.000000,531.000000) scale(0.100000,-0.100000)"
fill="#000000" stroke="none">
<path d="M319 3983 c0 -5 -1 -583 -2 -1286 l-2 -1277 785 2 785 3 0 133 0 132
-40 1 c-22 0 -295 1 -607 1 l-566 1 -4 21 c-1 11 -3 528 -3 1149 l1 1127 -173
0 c-95 0 -173 -3 -174 -7z"/>
<path d="M3250 2705 l0 -1285 173 0 173 0 0 515 -1 515 370 1 c420 1 439 2
552 30 162 40 279 102 379 203 100 101 166 228 192 371 14 79 7 316 -12 380
-77 268 -267 450 -541 521 -5 1 -55 10 -110 18 -81 13 -200 16 -637 16 l-538
0 0 -1285z m1135 996 c175 -38 303 -163 351 -344 18 -69 16 -221 -5 -293 -52
-182 -173 -292 -359 -328 -97 -19 -771 -21 -773 -3 -5 62 -3 956 3 968 6 14
47 16 365 14 249 -1 376 -5 418 -14z"/>
<path d="M2245 1599 l0 -179 172 0 c158 0 173 2 174 18 1 24 1 292 0 319 -1
22 -2 22 -174 21 l-172 -1 0 -178z"/>
</g>
</svg>
